<svg width="660" height="288" viewBox="0 0 660 288" fill="none" xmlns="http://www.w3.org/2000/svg">
<mask id="path-1-outside-1_30_313" maskUnits="userSpaceOnUse" x="0" y="0" width="660" height="288" fill="black">
<rect fill="white" width="660" height="288"/>
<path d="M154.841 174.915C155.244 175.518 155.143 177.529 154.539 180.947C154.137 184.365 153.432 188.085 152.426 192.106C151.621 196.128 150.715 199.948 149.709 203.567C148.903 206.986 148.199 208.996 147.595 209.6H144.576C143.972 209.6 143.368 209.499 142.765 209.298C143.771 218.949 144.576 226.691 145.18 232.522C145.784 238.353 146.086 241.57 146.086 242.173C146.086 243.581 145.381 245.591 143.972 248.205C142.765 250.819 141.356 253.232 139.745 255.444C138.135 257.656 136.424 259.365 134.613 260.571C133.003 261.979 131.896 262.079 131.292 260.873C130.286 259.063 128.172 253.634 124.952 244.586C121.731 235.538 118.108 223.172 114.083 207.488C110.058 207.086 105.831 206.684 101.403 206.282C97.176 205.88 92.8486 205.478 88.4205 205.075C83.9925 204.673 79.5645 204.171 75.1364 203.567C70.9097 202.763 66.7835 202.059 62.758 201.456C60.7453 210.303 58.7326 218.648 56.7198 226.489C54.9084 234.331 53.0969 241.168 51.2854 246.999C49.6752 252.83 48.2663 257.454 47.0587 260.873C45.851 264.291 44.9453 266 44.3414 266C42.7313 266 41.1211 264.995 39.5109 262.984C37.9007 260.973 36.3911 258.56 34.9822 255.745C33.7745 252.93 32.7682 250.015 31.9631 246.999C31.158 243.983 30.7554 241.469 30.7554 239.459C31.158 234.834 31.6612 230.008 32.265 224.981C33.0701 219.955 33.6739 215.33 34.0765 211.108C34.6803 206.081 35.2841 201.155 35.8879 196.329H34.6803C33.8752 195.927 32.7682 195.022 31.3593 193.614C29.9503 192.207 28.5414 190.799 27.1325 189.392C25.7236 187.783 24.5159 186.275 23.5096 184.868C22.5032 183.259 22 182.053 22 181.248C22 180.846 23.4089 180.444 26.2268 180.042C29.2459 179.64 33.1707 179.238 38.0013 178.836C39.6115 166.771 41.3223 154.204 43.1338 141.135C44.9453 128.065 46.7567 115.8 48.5682 104.339C50.3797 92.8776 52.0905 82.9246 53.7007 74.4796C55.5122 65.8335 57.0217 59.9019 58.2294 56.6848C60.2421 51.2559 63.7644 46.4302 68.7963 42.2077C73.8281 37.7841 79.0613 34.1648 84.4957 31.3498C90.1314 28.3337 95.4651 26.0214 100.497 24.4129C105.529 22.8043 109.252 22 111.668 22C112.674 22 113.781 24.3123 114.989 28.937C116.398 33.3605 117.807 39.3927 119.215 47.0334C120.826 54.6741 122.436 63.6218 124.046 73.8764C125.858 83.93 127.568 94.5867 129.179 105.847C130.789 117.107 132.298 128.668 133.707 140.532C135.317 152.194 136.827 163.353 138.236 174.01C148.3 174.01 153.835 174.311 154.841 174.915ZM68.4944 176.724C74.9351 176.322 81.3759 176.021 87.8167 175.82C94.2575 175.618 100.598 175.317 106.837 174.915C105.227 167.073 103.415 158.326 101.403 148.675C99.7925 140.431 97.8804 130.78 95.6664 119.721C93.4524 108.662 91.2384 96.4969 89.0243 83.2262C86.6091 95.0894 84.1938 106.651 81.7785 117.911C79.3632 128.97 77.1492 138.923 75.1364 147.77C72.9224 158.025 70.7084 167.676 68.4944 176.724Z"/>
<path d="M231.828 137.214C236.458 139.627 241.087 142.241 245.716 145.056C250.547 147.871 254.975 150.585 259.001 153.199C263.026 155.612 266.347 157.924 268.964 160.136C271.781 162.147 273.593 163.755 274.398 164.962C275.404 166.57 275.908 169.084 275.908 172.502C275.908 175.719 275.606 179.338 275.002 183.36C274.599 187.18 273.895 191 272.888 194.821C271.882 198.44 270.775 201.356 269.567 203.567C268.158 206.382 264.938 210.002 259.906 214.425C255.076 218.849 249.641 223.272 243.603 227.696C237.565 232.119 231.627 236.04 225.79 239.459C220.155 242.877 215.827 244.988 212.808 245.792C210.594 246.396 207.273 246.999 202.845 247.602C198.618 248.205 194.19 248.708 189.561 249.11C184.932 249.512 180.705 249.814 176.881 250.015C173.258 250.015 171.044 249.814 170.239 249.412C168.628 248.406 167.219 246.898 166.012 244.888C165.005 242.877 164.502 240.263 164.502 237.046C164.905 230.008 165.71 225.183 166.918 222.569C167.32 221.965 167.823 221.664 168.427 221.664C169.031 221.463 170.037 221.362 171.446 221.362C172.855 221.362 174.667 221.362 176.881 221.362C179.095 221.362 182.013 221.262 185.636 221.061C184.63 210.806 183.724 201.054 182.919 191.805C182.114 182.555 181.409 174.412 180.805 167.375C180 159.131 179.397 151.389 178.994 144.151C178.591 137.113 177.988 129.272 177.182 120.625C176.579 113.186 175.874 104.54 175.069 94.6873C174.264 84.8348 173.358 74.178 172.352 62.7169C170.54 62.7169 168.427 62.7169 166.012 62.7169C163.596 62.7169 161.181 62.7169 158.766 62.7169C156.552 62.5159 154.64 62.3148 153.03 62.1137C151.218 61.7116 150.111 61.2089 149.709 60.6057C148.903 59.3993 148.3 57.1875 147.897 53.9703C147.495 50.5521 147.293 47.2344 147.293 44.0173C147.293 40.5991 147.897 37.2814 149.105 34.0643C150.312 30.6461 151.721 28.4343 153.331 27.4289C153.734 27.2279 155.344 27.2279 158.162 27.4289C160.98 27.4289 164.402 27.7305 168.427 28.3337C172.453 28.7359 176.78 29.3391 181.409 30.1434C186.24 30.7466 190.769 31.4504 194.995 32.2546C199.222 32.8578 202.946 33.4611 206.166 34.0643C209.386 34.6675 211.6 35.0696 212.808 35.2707C214.821 35.6728 218.645 36.7787 224.281 38.5884C230.118 40.197 236.357 42.1071 242.999 44.3189C249.641 46.5307 255.981 49.0441 262.02 51.8591C268.058 54.473 272.285 57.0869 274.7 59.7009C275.706 60.7062 276.612 63.5212 277.417 68.1459C278.423 72.7705 279.128 77.8978 279.53 83.5278C280.134 89.1578 280.336 94.4862 280.134 99.513C280.134 104.339 279.631 107.556 278.625 109.164C277.82 110.371 275.002 112.482 270.171 115.498C265.341 118.514 260.007 121.631 254.17 124.848C247.528 128.467 240.081 132.589 231.828 137.214ZM208.883 131.182C211.5 129.975 215.022 127.562 219.45 123.943C224.079 120.324 228.608 116.302 233.036 111.879C237.665 107.254 241.59 102.63 244.811 98.0049C248.232 93.1792 249.943 89.0573 249.943 85.6391C249.943 84.6337 248.836 83.3267 246.622 81.7182C244.609 80.1096 241.792 78.501 238.169 76.8925C234.546 75.2839 230.218 73.6753 225.186 72.0668C220.356 70.2571 215.123 68.6485 209.487 67.241L208.883 131.182ZM208.581 217.743C214.217 216.536 219.551 214.626 224.583 212.012C229.614 209.398 234.042 206.583 237.867 203.567C241.691 200.35 244.71 197.133 246.924 193.916C249.138 190.699 250.245 187.783 250.245 185.169C250.245 182.555 248.534 179.64 245.113 176.423C241.892 173.206 237.967 169.988 233.338 166.771C228.91 163.554 224.381 160.639 219.752 158.025C215.123 155.411 211.5 153.501 208.883 152.294L208.581 217.743Z"/>
<path d="M299.155 61.2089C300.161 59.3993 302.274 57.0869 305.495 54.2719C308.715 51.2559 312.539 48.2398 316.968 45.2237C321.597 42.2077 326.528 39.4932 331.761 37.0803C336.994 34.4664 342.227 32.7573 347.461 31.953C352.895 30.9477 357.927 31.1487 362.556 32.5562C367.387 33.7627 371.513 36.5777 374.934 41.0012C376.746 43.213 378.457 47.6366 380.067 54.2719C381.677 60.9073 383.187 68.9501 384.596 78.4005C386.206 87.6498 387.615 98.0049 388.822 109.466C390.03 120.726 391.036 132.288 391.842 144.151C392.647 155.813 393.15 167.375 393.351 178.836C393.754 190.096 393.754 200.551 393.351 210.203C393.15 219.653 392.546 227.796 391.54 234.633C390.735 241.268 389.426 245.893 387.615 248.507C383.992 253.735 378.356 257.253 370.708 259.063C363.059 260.873 355.008 260.873 346.555 259.063C338.101 257.454 330.05 254.036 322.402 248.808C314.753 243.581 309.118 236.543 305.495 227.696C303.08 221.865 301.067 213.923 299.457 203.869C298.048 193.815 296.941 182.958 296.136 171.295C295.331 159.432 294.827 147.368 294.626 135.103C294.626 122.837 294.727 111.577 294.928 101.323C295.331 90.8669 295.834 82.0198 296.438 74.7812C297.243 67.5426 298.148 63.0185 299.155 61.2089ZM358.329 214.124C359.537 212.917 360.342 209.7 360.745 204.472C361.348 199.043 361.65 192.71 361.65 185.471C361.852 178.031 361.852 170.19 361.65 161.946C361.65 153.702 361.65 146.061 361.65 139.023C361.65 121.128 361.047 107.254 359.839 97.4017C358.631 87.5492 357.222 80.2101 355.612 75.3844C353.801 69.7544 351.788 66.2357 349.574 64.8282C346.555 65.4314 344.039 66.4368 342.026 67.8443C340.013 69.0507 338.403 70.4582 337.196 72.0668C335.787 73.8764 334.68 75.7866 333.875 77.7973C333.271 79.6069 332.566 83.1257 331.761 88.3535C331.157 93.5814 330.554 99.8146 329.95 107.053C329.346 114.091 328.742 121.832 328.138 130.277C327.736 138.521 327.333 146.664 326.931 154.707C326.729 162.75 326.528 170.391 326.327 177.629C326.327 184.667 326.427 190.498 326.629 195.122C327.031 202.16 328.641 207.287 331.459 210.504C334.478 213.721 337.699 215.833 341.12 216.838C344.542 217.642 347.863 217.642 351.083 216.838C354.505 216.034 356.92 215.129 358.329 214.124Z"/>
<path d="M502.039 23.2064C502.643 24.0107 503.348 28.1327 504.153 35.5723C505.159 42.8109 506.165 51.8591 507.172 62.7169C508.379 73.5748 509.587 85.438 510.795 98.3065C512.002 110.974 513.109 123.239 514.116 135.103C515.122 146.765 516.028 157.22 516.833 166.47C517.638 175.518 518.242 181.852 518.644 185.471C519.248 190.9 520.154 197.535 521.362 205.377C522.77 213.219 524.079 220.96 525.286 228.601C526.695 236.04 527.802 242.575 528.607 248.205C529.413 253.835 529.513 257.153 528.909 258.158C528.306 259.164 526.293 259.063 522.871 257.857C519.449 256.65 515.726 254.941 511.7 252.729C507.675 250.518 503.851 248.105 500.228 245.491C496.806 242.877 494.592 240.665 493.586 238.855C492.579 236.845 491.472 233.527 490.265 228.902C489.057 224.077 487.749 217.743 486.34 209.901C483.723 214.727 480.805 219.653 477.584 224.68C474.364 229.707 471.244 234.331 468.225 238.554C465.206 242.776 462.388 246.295 459.772 249.11C457.356 251.724 455.545 252.93 454.337 252.729C452.324 252.528 449.205 249.914 444.978 244.888C440.952 239.66 436.826 233.829 432.6 227.394C428.373 220.759 424.549 214.526 421.127 208.695C417.907 202.663 416.095 198.641 415.693 196.63C415.491 195.424 415.391 192.71 415.391 188.487C415.391 184.063 415.391 178.836 415.391 172.803C415.592 166.771 415.793 160.237 415.994 153.199C416.397 145.96 416.699 138.923 416.9 132.087C417.303 125.049 417.605 118.414 417.806 112.18C418.208 105.947 418.611 100.82 419.014 96.7985C419.416 90.5653 419.919 84.131 420.523 77.4957C421.328 70.6592 422.033 64.3255 422.637 58.4944C423.442 52.6634 424.146 47.7371 424.75 43.7157C425.555 39.4932 426.259 36.8793 426.863 35.8739C427.266 35.0696 428.473 34.567 430.486 34.3659C432.7 34.1648 435.116 34.3659 437.732 34.9691C440.349 35.3712 442.764 36.1755 444.978 37.382C447.192 38.3873 448.702 39.6943 449.507 41.3028C449.909 42.3082 450.11 46.3296 450.11 53.3671C450.312 60.2035 450.412 68.4475 450.412 78.0989C450.412 87.7503 450.312 98.206 450.11 109.466C450.11 120.525 450.01 130.981 449.809 140.833C449.607 150.686 449.406 159.131 449.205 166.168C449.205 173.005 449.205 177.026 449.205 178.232C449.205 180.444 450.714 183.963 453.733 188.789C456.954 193.413 459.872 199.043 462.489 205.679L481.509 184.265C481.308 178.635 481.107 171.396 480.905 162.549C480.905 153.702 480.805 144.352 480.604 134.499C480.402 124.446 480.201 114.392 480 104.339C480 94.0841 480 84.7342 480 76.2892C480 67.8443 480 60.9073 480 55.4784C480.201 49.8484 480.402 46.6312 480.604 45.8269C481.207 44.2184 482.415 41.9061 484.226 38.89C486.239 35.6728 488.353 32.7573 490.567 30.1434C492.781 27.3284 494.995 25.1166 497.209 23.508C499.423 21.8995 501.033 21.7989 502.039 23.2064Z"/>
<path d="M636.994 32.8578C637.597 33.8632 637.899 36.1755 637.899 39.7948C638.101 43.4141 638 47.335 637.597 51.5575C637.195 55.78 636.591 59.9019 635.786 63.9234C635.182 67.7437 634.478 70.2571 633.673 71.4635C633.069 72.4689 629.345 72.871 622.502 72.67C615.86 72.2678 606.299 71.2625 593.82 69.6539C593.82 77.4957 593.72 87.5492 593.518 99.8146C593.317 112.08 592.915 125.25 592.311 139.325C591.908 153.199 591.405 167.173 590.801 181.248C590.399 195.323 589.895 208.091 589.292 219.553C588.688 231.014 588.084 240.363 587.48 247.602C586.876 254.841 586.373 258.661 585.971 259.063C585.166 259.666 583.757 259.365 581.744 258.158C579.932 257.153 578.02 255.645 576.008 253.634C573.995 251.623 572.083 249.613 570.271 247.602C568.661 245.39 567.554 243.48 566.95 241.871C566.749 241.067 566.346 237.146 565.743 230.109C565.34 223.071 564.837 214.224 564.233 203.567C563.629 192.911 562.925 181.047 562.12 167.978C561.314 154.908 560.509 141.939 559.704 129.07C558.899 116.202 557.993 104.138 556.987 92.8776C556.182 81.6176 555.478 72.2678 554.874 64.8282C541.187 63.4207 531.325 62.0132 525.286 60.6057C519.248 59.1982 515.826 58.0923 515.021 57.288C514.216 56.4837 513.411 54.9757 512.606 52.7639C511.6 50.3511 510.795 47.9382 510.191 45.5253C509.587 43.1125 509.285 40.9007 509.285 38.89C509.084 36.6782 509.285 35.2707 509.889 34.6675C510.291 34.2653 513.713 33.8632 520.154 33.4611C526.393 33.0589 534.142 32.6568 543.401 32.2546C552.66 31.8525 562.623 31.5509 573.29 31.3498C584.159 31.1487 594.223 31.0482 603.481 31.0482C612.74 31.0482 620.489 31.2493 626.729 31.6514C633.169 31.8525 636.591 32.2546 636.994 32.8578Z"/>
</mask>
<path d="M154.841 174.915C155.244 175.518 155.143 177.529 154.539 180.947C154.137 184.365 153.432 188.085 152.426 192.106C151.621 196.128 150.715 199.948 149.709 203.567C148.903 206.986 148.199 208.996 147.595 209.6H144.576C143.972 209.6 143.368 209.499 142.765 209.298C143.771 218.949 144.576 226.691 145.18 232.522C145.784 238.353 146.086 241.57 146.086 242.173C146.086 243.581 145.381 245.591 143.972 248.205C142.765 250.819 141.356 253.232 139.745 255.444C138.135 257.656 136.424 259.365 134.613 260.571C133.003 261.979 131.896 262.079 131.292 260.873C130.286 259.063 128.172 253.634 124.952 244.586C121.731 235.538 118.108 223.172 114.083 207.488C110.058 207.086 105.831 206.684 101.403 206.282C97.176 205.88 92.8486 205.478 88.4205 205.075C83.9925 204.673 79.5645 204.171 75.1364 203.567C70.9097 202.763 66.7835 202.059 62.758 201.456C60.7453 210.303 58.7326 218.648 56.7198 226.489C54.9084 234.331 53.0969 241.168 51.2854 246.999C49.6752 252.83 48.2663 257.454 47.0587 260.873C45.851 264.291 44.9453 266 44.3414 266C42.7313 266 41.1211 264.995 39.5109 262.984C37.9007 260.973 36.3911 258.56 34.9822 255.745C33.7745 252.93 32.7682 250.015 31.9631 246.999C31.158 243.983 30.7554 241.469 30.7554 239.459C31.158 234.834 31.6612 230.008 32.265 224.981C33.0701 219.955 33.6739 215.33 34.0765 211.108C34.6803 206.081 35.2841 201.155 35.8879 196.329H34.6803C33.8752 195.927 32.7682 195.022 31.3593 193.614C29.9503 192.207 28.5414 190.799 27.1325 189.392C25.7236 187.783 24.5159 186.275 23.5096 184.868C22.5032 183.259 22 182.053 22 181.248C22 180.846 23.4089 180.444 26.2268 180.042C29.2459 179.64 33.1707 179.238 38.0013 178.836C39.6115 166.771 41.3223 154.204 43.1338 141.135C44.9453 128.065 46.7567 115.8 48.5682 104.339C50.3797 92.8776 52.0905 82.9246 53.7007 74.4796C55.5122 65.8335 57.0217 59.9019 58.2294 56.6848C60.2421 51.2559 63.7644 46.4302 68.7963 42.2077C73.8281 37.7841 79.0613 34.1648 84.4957 31.3498C90.1314 28.3337 95.4651 26.0214 100.497 24.4129C105.529 22.8043 109.252 22 111.668 22C112.674 22 113.781 24.3123 114.989 28.937C116.398 33.3605 117.807 39.3927 119.215 47.0334C120.826 54.6741 122.436 63.6218 124.046 73.8764C125.858 83.93 127.568 94.5867 129.179 105.847C130.789 117.107 132.298 128.668 133.707 140.532C135.317 152.194 136.827 163.353 138.236 174.01C148.3 174.01 153.835 174.311 154.841 174.915ZM68.4944 176.724C74.9351 176.322 81.3759 176.021 87.8167 175.82C94.2575 175.618 100.598 175.317 106.837 174.915C105.227 167.073 103.415 158.326 101.403 148.675C99.7925 140.431 97.8804 130.78 95.6664 119.721C93.4524 108.662 91.2384 96.4969 89.0243 83.2262C86.6091 95.0894 84.1938 106.651 81.7785 117.911C79.3632 128.97 77.1492 138.923 75.1364 147.77C72.9224 158.025 70.7084 167.676 68.4944 176.724Z" fill="#F6E120"/>
<path d="M231.828 137.214C236.458 139.627 241.087 142.241 245.716 145.056C250.547 147.871 254.975 150.585 259.001 153.199C263.026 155.612 266.347 157.924 268.964 160.136C271.781 162.147 273.593 163.755 274.398 164.962C275.404 166.57 275.908 169.084 275.908 172.502C275.908 175.719 275.606 179.338 275.002 183.36C274.599 187.18 273.895 191 272.888 194.821C271.882 198.44 270.775 201.356 269.567 203.567C268.158 206.382 264.938 210.002 259.906 214.425C255.076 218.849 249.641 223.272 243.603 227.696C237.565 232.119 231.627 236.04 225.79 239.459C220.155 242.877 215.827 244.988 212.808 245.792C210.594 246.396 207.273 246.999 202.845 247.602C198.618 248.205 194.19 248.708 189.561 249.11C184.932 249.512 180.705 249.814 176.881 250.015C173.258 250.015 171.044 249.814 170.239 249.412C168.628 248.406 167.219 246.898 166.012 244.888C165.005 242.877 164.502 240.263 164.502 237.046C164.905 230.008 165.71 225.183 166.918 222.569C167.32 221.965 167.823 221.664 168.427 221.664C169.031 221.463 170.037 221.362 171.446 221.362C172.855 221.362 174.667 221.362 176.881 221.362C179.095 221.362 182.013 221.262 185.636 221.061C184.63 210.806 183.724 201.054 182.919 191.805C182.114 182.555 181.409 174.412 180.805 167.375C180 159.131 179.397 151.389 178.994 144.151C178.591 137.113 177.988 129.272 177.182 120.625C176.579 113.186 175.874 104.54 175.069 94.6873C174.264 84.8348 173.358 74.178 172.352 62.7169C170.54 62.7169 168.427 62.7169 166.012 62.7169C163.596 62.7169 161.181 62.7169 158.766 62.7169C156.552 62.5159 154.64 62.3148 153.03 62.1137C151.218 61.7116 150.111 61.2089 149.709 60.6057C148.903 59.3993 148.3 57.1875 147.897 53.9703C147.495 50.5521 147.293 47.2344 147.293 44.0173C147.293 40.5991 147.897 37.2814 149.105 34.0643C150.312 30.6461 151.721 28.4343 153.331 27.4289C153.734 27.2279 155.344 27.2279 158.162 27.4289C160.98 27.4289 164.402 27.7305 168.427 28.3337C172.453 28.7359 176.78 29.3391 181.409 30.1434C186.24 30.7466 190.769 31.4504 194.995 32.2546C199.222 32.8578 202.946 33.4611 206.166 34.0643C209.386 34.6675 211.6 35.0696 212.808 35.2707C214.821 35.6728 218.645 36.7787 224.281 38.5884C230.118 40.197 236.357 42.1071 242.999 44.3189C249.641 46.5307 255.981 49.0441 262.02 51.8591C268.058 54.473 272.285 57.0869 274.7 59.7009C275.706 60.7062 276.612 63.5212 277.417 68.1459C278.423 72.7705 279.128 77.8978 279.53 83.5278C280.134 89.1578 280.336 94.4862 280.134 99.513C280.134 104.339 279.631 107.556 278.625 109.164C277.82 110.371 275.002 112.482 270.171 115.498C265.341 118.514 260.007 121.631 254.17 124.848C247.528 128.467 240.081 132.589 231.828 137.214ZM208.883 131.182C211.5 129.975 215.022 127.562 219.45 123.943C224.079 120.324 228.608 116.302 233.036 111.879C237.665 107.254 241.59 102.63 244.811 98.0049C248.232 93.1792 249.943 89.0573 249.943 85.6391C249.943 84.6337 248.836 83.3267 246.622 81.7182C244.609 80.1096 241.792 78.501 238.169 76.8925C234.546 75.2839 230.218 73.6753 225.186 72.0668C220.356 70.2571 215.123 68.6485 209.487 67.241L208.883 131.182ZM208.581 217.743C214.217 216.536 219.551 214.626 224.583 212.012C229.614 209.398 234.042 206.583 237.867 203.567C241.691 200.35 244.71 197.133 246.924 193.916C249.138 190.699 250.245 187.783 250.245 185.169C250.245 182.555 248.534 179.64 245.113 176.423C241.892 173.206 237.967 169.988 233.338 166.771C228.91 163.554 224.381 160.639 219.752 158.025C215.123 155.411 211.5 153.501 208.883 152.294L208.581 217.743Z" fill="#F6E120"/>
<path d="M299.155 61.2089C300.161 59.3993 302.274 57.0869 305.495 54.2719C308.715 51.2559 312.539 48.2398 316.968 45.2237C321.597 42.2077 326.528 39.4932 331.761 37.0803C336.994 34.4664 342.227 32.7573 347.461 31.953C352.895 30.9477 357.927 31.1487 362.556 32.5562C367.387 33.7627 371.513 36.5777 374.934 41.0012C376.746 43.213 378.457 47.6366 380.067 54.2719C381.677 60.9073 383.187 68.9501 384.596 78.4005C386.206 87.6498 387.615 98.0049 388.822 109.466C390.03 120.726 391.036 132.288 391.842 144.151C392.647 155.813 393.15 167.375 393.351 178.836C393.754 190.096 393.754 200.551 393.351 210.203C393.15 219.653 392.546 227.796 391.54 234.633C390.735 241.268 389.426 245.893 387.615 248.507C383.992 253.735 378.356 257.253 370.708 259.063C363.059 260.873 355.008 260.873 346.555 259.063C338.101 257.454 330.05 254.036 322.402 248.808C314.753 243.581 309.118 236.543 305.495 227.696C303.08 221.865 301.067 213.923 299.457 203.869C298.048 193.815 296.941 182.958 296.136 171.295C295.331 159.432 294.827 147.368 294.626 135.103C294.626 122.837 294.727 111.577 294.928 101.323C295.331 90.8669 295.834 82.0198 296.438 74.7812C297.243 67.5426 298.148 63.0185 299.155 61.2089ZM358.329 214.124C359.537 212.917 360.342 209.7 360.745 204.472C361.348 199.043 361.65 192.71 361.65 185.471C361.852 178.031 361.852 170.19 361.65 161.946C361.65 153.702 361.65 146.061 361.65 139.023C361.65 121.128 361.047 107.254 359.839 97.4017C358.631 87.5492 357.222 80.2101 355.612 75.3844C353.801 69.7544 351.788 66.2357 349.574 64.8282C346.555 65.4314 344.039 66.4368 342.026 67.8443C340.013 69.0507 338.403 70.4582 337.196 72.0668C335.787 73.8764 334.68 75.7866 333.875 77.7973C333.271 79.6069 332.566 83.1257 331.761 88.3535C331.157 93.5814 330.554 99.8146 329.95 107.053C329.346 114.091 328.742 121.832 328.138 130.277C327.736 138.521 327.333 146.664 326.931 154.707C326.729 162.75 326.528 170.391 326.327 177.629C326.327 184.667 326.427 190.498 326.629 195.122C327.031 202.16 328.641 207.287 331.459 210.504C334.478 213.721 337.699 215.833 341.12 216.838C344.542 217.642 347.863 217.642 351.083 216.838C354.505 216.034 356.92 215.129 358.329 214.124Z" fill="#F6E120"/>
<path d="M502.039 23.2064C502.643 24.0107 503.348 28.1327 504.153 35.5723C505.159 42.8109 506.165 51.8591 507.172 62.7169C508.379 73.5748 509.587 85.438 510.795 98.3065C512.002 110.974 513.109 123.239 514.116 135.103C515.122 146.765 516.028 157.22 516.833 166.47C517.638 175.518 518.242 181.852 518.644 185.471C519.248 190.9 520.154 197.535 521.362 205.377C522.77 213.219 524.079 220.96 525.286 228.601C526.695 236.04 527.802 242.575 528.607 248.205C529.413 253.835 529.513 257.153 528.909 258.158C528.306 259.164 526.293 259.063 522.871 257.857C519.449 256.65 515.726 254.941 511.7 252.729C507.675 250.518 503.851 248.105 500.228 245.491C496.806 242.877 494.592 240.665 493.586 238.855C492.579 236.845 491.472 233.527 490.265 228.902C489.057 224.077 487.749 217.743 486.34 209.901C483.723 214.727 480.805 219.653 477.584 224.68C474.364 229.707 471.244 234.331 468.225 238.554C465.206 242.776 462.388 246.295 459.772 249.11C457.356 251.724 455.545 252.93 454.337 252.729C452.324 252.528 449.205 249.914 444.978 244.888C440.952 239.66 436.826 233.829 432.6 227.394C428.373 220.759 424.549 214.526 421.127 208.695C417.907 202.663 416.095 198.641 415.693 196.63C415.491 195.424 415.391 192.71 415.391 188.487C415.391 184.063 415.391 178.836 415.391 172.803C415.592 166.771 415.793 160.237 415.994 153.199C416.397 145.96 416.699 138.923 416.9 132.087C417.303 125.049 417.605 118.414 417.806 112.18C418.208 105.947 418.611 100.82 419.014 96.7985C419.416 90.5653 419.919 84.131 420.523 77.4957C421.328 70.6592 422.033 64.3255 422.637 58.4944C423.442 52.6634 424.146 47.7371 424.75 43.7157C425.555 39.4932 426.259 36.8793 426.863 35.8739C427.266 35.0696 428.473 34.567 430.486 34.3659C432.7 34.1648 435.116 34.3659 437.732 34.9691C440.349 35.3712 442.764 36.1755 444.978 37.382C447.192 38.3873 448.702 39.6943 449.507 41.3028C449.909 42.3082 450.11 46.3296 450.11 53.3671C450.312 60.2035 450.412 68.4475 450.412 78.0989C450.412 87.7503 450.312 98.206 450.11 109.466C450.11 120.525 450.01 130.981 449.809 140.833C449.607 150.686 449.406 159.131 449.205 166.168C449.205 173.005 449.205 177.026 449.205 178.232C449.205 180.444 450.714 183.963 453.733 188.789C456.954 193.413 459.872 199.043 462.489 205.679L481.509 184.265C481.308 178.635 481.107 171.396 480.905 162.549C480.905 153.702 480.805 144.352 480.604 134.499C480.402 124.446 480.201 114.392 480 104.339C480 94.0841 480 84.7342 480 76.2892C480 67.8443 480 60.9073 480 55.4784C480.201 49.8484 480.402 46.6312 480.604 45.8269C481.207 44.2184 482.415 41.9061 484.226 38.89C486.239 35.6728 488.353 32.7573 490.567 30.1434C492.781 27.3284 494.995 25.1166 497.209 23.508C499.423 21.8995 501.033 21.7989 502.039 23.2064Z" fill="#F6E120"/>
<path d="M636.994 32.8578C637.597 33.8632 637.899 36.1755 637.899 39.7948C638.101 43.4141 638 47.335 637.597 51.5575C637.195 55.78 636.591 59.9019 635.786 63.9234C635.182 67.7437 634.478 70.2571 633.673 71.4635C633.069 72.4689 629.345 72.871 622.502 72.67C615.86 72.2678 606.299 71.2625 593.82 69.6539C593.82 77.4957 593.72 87.5492 593.518 99.8146C593.317 112.08 592.915 125.25 592.311 139.325C591.908 153.199 591.405 167.173 590.801 181.248C590.399 195.323 589.895 208.091 589.292 219.553C588.688 231.014 588.084 240.363 587.48 247.602C586.876 254.841 586.373 258.661 585.971 259.063C585.166 259.666 583.757 259.365 581.744 258.158C579.932 257.153 578.02 255.645 576.008 253.634C573.995 251.623 572.083 249.613 570.271 247.602C568.661 245.39 567.554 243.48 566.95 241.871C566.749 241.067 566.346 237.146 565.743 230.109C565.34 223.071 564.837 214.224 564.233 203.567C563.629 192.911 562.925 181.047 562.12 167.978C561.314 154.908 560.509 141.939 559.704 129.07C558.899 116.202 557.993 104.138 556.987 92.8776C556.182 81.6176 555.478 72.2678 554.874 64.8282C541.187 63.4207 531.325 62.0132 525.286 60.6057C519.248 59.1982 515.826 58.0923 515.021 57.288C514.216 56.4837 513.411 54.9757 512.606 52.7639C511.6 50.3511 510.795 47.9382 510.191 45.5253C509.587 43.1125 509.285 40.9007 509.285 38.89C509.084 36.6782 509.285 35.2707 509.889 34.6675C510.291 34.2653 513.713 33.8632 520.154 33.4611C526.393 33.0589 534.142 32.6568 543.401 32.2546C552.66 31.8525 562.623 31.5509 573.29 31.3498C584.159 31.1487 594.223 31.0482 603.481 31.0482C612.74 31.0482 620.489 31.2493 626.729 31.6514C633.169 31.8525 636.591 32.2546 636.994 32.8578Z" fill="#F6E120"/>
<path d="M154.841 174.915C155.244 175.518 155.143 177.529 154.539 180.947C154.137 184.365 153.432 188.085 152.426 192.106C151.621 196.128 150.715 199.948 149.709 203.567C148.903 206.986 148.199 208.996 147.595 209.6H144.576C143.972 209.6 143.368 209.499 142.765 209.298C143.771 218.949 144.576 226.691 145.18 232.522C145.784 238.353 146.086 241.57 146.086 242.173C146.086 243.581 145.381 245.591 143.972 248.205C142.765 250.819 141.356 253.232 139.745 255.444C138.135 257.656 136.424 259.365 134.613 260.571C133.003 261.979 131.896 262.079 131.292 260.873C130.286 259.063 128.172 253.634 124.952 244.586C121.731 235.538 118.108 223.172 114.083 207.488C110.058 207.086 105.831 206.684 101.403 206.282C97.176 205.88 92.8486 205.478 88.4205 205.075C83.9925 204.673 79.5645 204.171 75.1364 203.567C70.9097 202.763 66.7835 202.059 62.758 201.456C60.7453 210.303 58.7326 218.648 56.7198 226.489C54.9084 234.331 53.0969 241.168 51.2854 246.999C49.6752 252.83 48.2663 257.454 47.0587 260.873C45.851 264.291 44.9453 266 44.3414 266C42.7313 266 41.1211 264.995 39.5109 262.984C37.9007 260.973 36.3911 258.56 34.9822 255.745C33.7745 252.93 32.7682 250.015 31.9631 246.999C31.158 243.983 30.7554 241.469 30.7554 239.459C31.158 234.834 31.6612 230.008 32.265 224.981C33.0701 219.955 33.6739 215.33 34.0765 211.108C34.6803 206.081 35.2841 201.155 35.8879 196.329H34.6803C33.8752 195.927 32.7682 195.022 31.3593 193.614C29.9503 192.207 28.5414 190.799 27.1325 189.392C25.7236 187.783 24.5159 186.275 23.5096 184.868C22.5032 183.259 22 182.053 22 181.248C22 180.846 23.4089 180.444 26.2268 180.042C29.2459 179.64 33.1707 179.238 38.0013 178.836C39.6115 166.771 41.3223 154.204 43.1338 141.135C44.9453 128.065 46.7567 115.8 48.5682 104.339C50.3797 92.8776 52.0905 82.9246 53.7007 74.4796C55.5122 65.8335 57.0217 59.9019 58.2294 56.6848C60.2421 51.2559 63.7644 46.4302 68.7963 42.2077C73.8281 37.7841 79.0613 34.1648 84.4957 31.3498C90.1314 28.3337 95.4651 26.0214 100.497 24.4129C105.529 22.8043 109.252 22 111.668 22C112.674 22 113.781 24.3123 114.989 28.937C116.398 33.3605 117.807 39.3927 119.215 47.0334C120.826 54.6741 122.436 63.6218 124.046 73.8764C125.858 83.93 127.568 94.5867 129.179 105.847C130.789 117.107 132.298 128.668 133.707 140.532C135.317 152.194 136.827 163.353 138.236 174.01C148.3 174.01 153.835 174.311 154.841 174.915ZM68.4944 176.724C74.9351 176.322 81.3759 176.021 87.8167 175.82C94.2575 175.618 100.598 175.317 106.837 174.915C105.227 167.073 103.415 158.326 101.403 148.675C99.7925 140.431 97.8804 130.78 95.6664 119.721C93.4524 108.662 91.2384 96.4969 89.0243 83.2262C86.6091 95.0894 84.1938 106.651 81.7785 117.911C79.3632 128.97 77.1492 138.923 75.1364 147.77C72.9224 158.025 70.7084 167.676 68.4944 176.724Z" stroke="black" stroke-width="44" mask="url(#path-1-outside-1_30_313)"/>
<path d="M231.828 137.214C236.458 139.627 241.087 142.241 245.716 145.056C250.547 147.871 254.975 150.585 259.001 153.199C263.026 155.612 266.347 157.924 268.964 160.136C271.781 162.147 273.593 163.755 274.398 164.962C275.404 166.57 275.908 169.084 275.908 172.502C275.908 175.719 275.606 179.338 275.002 183.36C274.599 187.18 273.895 191 272.888 194.821C271.882 198.44 270.775 201.356 269.567 203.567C268.158 206.382 264.938 210.002 259.906 214.425C255.076 218.849 249.641 223.272 243.603 227.696C237.565 232.119 231.627 236.04 225.79 239.459C220.155 242.877 215.827 244.988 212.808 245.792C210.594 246.396 207.273 246.999 202.845 247.602C198.618 248.205 194.19 248.708 189.561 249.11C184.932 249.512 180.705 249.814 176.881 250.015C173.258 250.015 171.044 249.814 170.239 249.412C168.628 248.406 167.219 246.898 166.012 244.888C165.005 242.877 164.502 240.263 164.502 237.046C164.905 230.008 165.71 225.183 166.918 222.569C167.32 221.965 167.823 221.664 168.427 221.664C169.031 221.463 170.037 221.362 171.446 221.362C172.855 221.362 174.667 221.362 176.881 221.362C179.095 221.362 182.013 221.262 185.636 221.061C184.63 210.806 183.724 201.054 182.919 191.805C182.114 182.555 181.409 174.412 180.805 167.375C180 159.131 179.397 151.389 178.994 144.151C178.591 137.113 177.988 129.272 177.182 120.625C176.579 113.186 175.874 104.54 175.069 94.6873C174.264 84.8348 173.358 74.178 172.352 62.7169C170.54 62.7169 168.427 62.7169 166.012 62.7169C163.596 62.7169 161.181 62.7169 158.766 62.7169C156.552 62.5159 154.64 62.3148 153.03 62.1137C151.218 61.7116 150.111 61.2089 149.709 60.6057C148.903 59.3993 148.3 57.1875 147.897 53.9703C147.495 50.5521 147.293 47.2344 147.293 44.0173C147.293 40.5991 147.897 37.2814 149.105 34.0643C150.312 30.6461 151.721 28.4343 153.331 27.4289C153.734 27.2279 155.344 27.2279 158.162 27.4289C160.98 27.4289 164.402 27.7305 168.427 28.3337C172.453 28.7359 176.78 29.3391 181.409 30.1434C186.24 30.7466 190.769 31.4504 194.995 32.2546C199.222 32.8578 202.946 33.4611 206.166 34.0643C209.386 34.6675 211.6 35.0696 212.808 35.2707C214.821 35.6728 218.645 36.7787 224.281 38.5884C230.118 40.197 236.357 42.1071 242.999 44.3189C249.641 46.5307 255.981 49.0441 262.02 51.8591C268.058 54.473 272.285 57.0869 274.7 59.7009C275.706 60.7062 276.612 63.5212 277.417 68.1459C278.423 72.7705 279.128 77.8978 279.53 83.5278C280.134 89.1578 280.336 94.4862 280.134 99.513C280.134 104.339 279.631 107.556 278.625 109.164C277.82 110.371 275.002 112.482 270.171 115.498C265.341 118.514 260.007 121.631 254.17 124.848C247.528 128.467 240.081 132.589 231.828 137.214ZM208.883 131.182C211.5 129.975 215.022 127.562 219.45 123.943C224.079 120.324 228.608 116.302 233.036 111.879C237.665 107.254 241.59 102.63 244.811 98.0049C248.232 93.1792 249.943 89.0573 249.943 85.6391C249.943 84.6337 248.836 83.3267 246.622 81.7182C244.609 80.1096 241.792 78.501 238.169 76.8925C234.546 75.2839 230.218 73.6753 225.186 72.0668C220.356 70.2571 215.123 68.6485 209.487 67.241L208.883 131.182ZM208.581 217.743C214.217 216.536 219.551 214.626 224.583 212.012C229.614 209.398 234.042 206.583 237.867 203.567C241.691 200.35 244.71 197.133 246.924 193.916C249.138 190.699 250.245 187.783 250.245 185.169C250.245 182.555 248.534 179.64 245.113 176.423C241.892 173.206 237.967 169.988 233.338 166.771C228.91 163.554 224.381 160.639 219.752 158.025C215.123 155.411 211.5 153.501 208.883 152.294L208.581 217.743Z" stroke="black" stroke-width="44" mask="url(#path-1-outside-1_30_313)"/>
<path d="M299.155 61.2089C300.161 59.3993 302.274 57.0869 305.495 54.2719C308.715 51.2559 312.539 48.2398 316.968 45.2237C321.597 42.2077 326.528 39.4932 331.761 37.0803C336.994 34.4664 342.227 32.7573 347.461 31.953C352.895 30.9477 357.927 31.1487 362.556 32.5562C367.387 33.7627 371.513 36.5777 374.934 41.0012C376.746 43.213 378.457 47.6366 380.067 54.2719C381.677 60.9073 383.187 68.9501 384.596 78.4005C386.206 87.6498 387.615 98.0049 388.822 109.466C390.03 120.726 391.036 132.288 391.842 144.151C392.647 155.813 393.15 167.375 393.351 178.836C393.754 190.096 393.754 200.551 393.351 210.203C393.15 219.653 392.546 227.796 391.54 234.633C390.735 241.268 389.426 245.893 387.615 248.507C383.992 253.735 378.356 257.253 370.708 259.063C363.059 260.873 355.008 260.873 346.555 259.063C338.101 257.454 330.05 254.036 322.402 248.808C314.753 243.581 309.118 236.543 305.495 227.696C303.08 221.865 301.067 213.923 299.457 203.869C298.048 193.815 296.941 182.958 296.136 171.295C295.331 159.432 294.827 147.368 294.626 135.103C294.626 122.837 294.727 111.577 294.928 101.323C295.331 90.8669 295.834 82.0198 296.438 74.7812C297.243 67.5426 298.148 63.0185 299.155 61.2089ZM358.329 214.124C359.537 212.917 360.342 209.7 360.745 204.472C361.348 199.043 361.65 192.71 361.65 185.471C361.852 178.031 361.852 170.19 361.65 161.946C361.65 153.702 361.65 146.061 361.65 139.023C361.65 121.128 361.047 107.254 359.839 97.4017C358.631 87.5492 357.222 80.2101 355.612 75.3844C353.801 69.7544 351.788 66.2357 349.574 64.8282C346.555 65.4314 344.039 66.4368 342.026 67.8443C340.013 69.0507 338.403 70.4582 337.196 72.0668C335.787 73.8764 334.68 75.7866 333.875 77.7973C333.271 79.6069 332.566 83.1257 331.761 88.3535C331.157 93.5814 330.554 99.8146 329.95 107.053C329.346 114.091 328.742 121.832 328.138 130.277C327.736 138.521 327.333 146.664 326.931 154.707C326.729 162.75 326.528 170.391 326.327 177.629C326.327 184.667 326.427 190.498 326.629 195.122C327.031 202.16 328.641 207.287 331.459 210.504C334.478 213.721 337.699 215.833 341.12 216.838C344.542 217.642 347.863 217.642 351.083 216.838C354.505 216.034 356.92 215.129 358.329 214.124Z" stroke="black" stroke-width="44" mask="url(#path-1-outside-1_30_313)"/>
<path d="M502.039 23.2064C502.643 24.0107 503.348 28.1327 504.153 35.5723C505.159 42.8109 506.165 51.8591 507.172 62.7169C508.379 73.5748 509.587 85.438 510.795 98.3065C512.002 110.974 513.109 123.239 514.116 135.103C515.122 146.765 516.028 157.22 516.833 166.47C517.638 175.518 518.242 181.852 518.644 185.471C519.248 190.9 520.154 197.535 521.362 205.377C522.77 213.219 524.079 220.96 525.286 228.601C526.695 236.04 527.802 242.575 528.607 248.205C529.413 253.835 529.513 257.153 528.909 258.158C528.306 259.164 526.293 259.063 522.871 257.857C519.449 256.65 515.726 254.941 511.7 252.729C507.675 250.518 503.851 248.105 500.228 245.491C496.806 242.877 494.592 240.665 493.586 238.855C492.579 236.845 491.472 233.527 490.265 228.902C489.057 224.077 487.749 217.743 486.34 209.901C483.723 214.727 480.805 219.653 477.584 224.68C474.364 229.707 471.244 234.331 468.225 238.554C465.206 242.776 462.388 246.295 459.772 249.11C457.356 251.724 455.545 252.93 454.337 252.729C452.324 252.528 449.205 249.914 444.978 244.888C440.952 239.66 436.826 233.829 432.6 227.394C428.373 220.759 424.549 214.526 421.127 208.695C417.907 202.663 416.095 198.641 415.693 196.63C415.491 195.424 415.391 192.71 415.391 188.487C415.391 184.063 415.391 178.836 415.391 172.803C415.592 166.771 415.793 160.237 415.994 153.199C416.397 145.96 416.699 138.923 416.9 132.087C417.303 125.049 417.605 118.414 417.806 112.18C418.208 105.947 418.611 100.82 419.014 96.7985C419.416 90.5653 419.919 84.131 420.523 77.4957C421.328 70.6592 422.033 64.3255 422.637 58.4944C423.442 52.6634 424.146 47.7371 424.75 43.7157C425.555 39.4932 426.259 36.8793 426.863 35.8739C427.266 35.0696 428.473 34.567 430.486 34.3659C432.7 34.1648 435.116 34.3659 437.732 34.9691C440.349 35.3712 442.764 36.1755 444.978 37.382C447.192 38.3873 448.702 39.6943 449.507 41.3028C449.909 42.3082 450.11 46.3296 450.11 53.3671C450.312 60.2035 450.412 68.4475 450.412 78.0989C450.412 87.7503 450.312 98.206 450.11 109.466C450.11 120.525 450.01 130.981 449.809 140.833C449.607 150.686 449.406 159.131 449.205 166.168C449.205 173.005 449.205 177.026 449.205 178.232C449.205 180.444 450.714 183.963 453.733 188.789C456.954 193.413 459.872 199.043 462.489 205.679L481.509 184.265C481.308 178.635 481.107 171.396 480.905 162.549C480.905 153.702 480.805 144.352 480.604 134.499C480.402 124.446 480.201 114.392 480 104.339C480 94.0841 480 84.7342 480 76.2892C480 67.8443 480 60.9073 480 55.4784C480.201 49.8484 480.402 46.6312 480.604 45.8269C481.207 44.2184 482.415 41.9061 484.226 38.89C486.239 35.6728 488.353 32.7573 490.567 30.1434C492.781 27.3284 494.995 25.1166 497.209 23.508C499.423 21.8995 501.033 21.7989 502.039 23.2064Z" stroke="black" stroke-width="44" mask="url(#path-1-outside-1_30_313)"/>
<path d="M636.994 32.8578C637.597 33.8632 637.899 36.1755 637.899 39.7948C638.101 43.4141 638 47.335 637.597 51.5575C637.195 55.78 636.591 59.9019 635.786 63.9234C635.182 67.7437 634.478 70.2571 633.673 71.4635C633.069 72.4689 629.345 72.871 622.502 72.67C615.86 72.2678 606.299 71.2625 593.82 69.6539C593.82 77.4957 593.72 87.5492 593.518 99.8146C593.317 112.08 592.915 125.25 592.311 139.325C591.908 153.199 591.405 167.173 590.801 181.248C590.399 195.323 589.895 208.091 589.292 219.553C588.688 231.014 588.084 240.363 587.48 247.602C586.876 254.841 586.373 258.661 585.971 259.063C585.166 259.666 583.757 259.365 581.744 258.158C579.932 257.153 578.02 255.645 576.008 253.634C573.995 251.623 572.083 249.613 570.271 247.602C568.661 245.39 567.554 243.48 566.95 241.871C566.749 241.067 566.346 237.146 565.743 230.109C565.34 223.071 564.837 214.224 564.233 203.567C563.629 192.911 562.925 181.047 562.12 167.978C561.314 154.908 560.509 141.939 559.704 129.07C558.899 116.202 557.993 104.138 556.987 92.8776C556.182 81.6176 555.478 72.2678 554.874 64.8282C541.187 63.4207 531.325 62.0132 525.286 60.6057C519.248 59.1982 515.826 58.0923 515.021 57.288C514.216 56.4837 513.411 54.9757 512.606 52.7639C511.6 50.3511 510.795 47.9382 510.191 45.5253C509.587 43.1125 509.285 40.9007 509.285 38.89C509.084 36.6782 509.285 35.2707 509.889 34.6675C510.291 34.2653 513.713 33.8632 520.154 33.4611C526.393 33.0589 534.142 32.6568 543.401 32.2546C552.66 31.8525 562.623 31.5509 573.29 31.3498C584.159 31.1487 594.223 31.0482 603.481 31.0482C612.74 31.0482 620.489 31.2493 626.729 31.6514C633.169 31.8525 636.591 32.2546 636.994 32.8578Z" stroke="black" stroke-width="44" mask="url(#path-1-outside-1_30_313)"/>
</svg>
