<svg width="1920" height="2304" viewBox="0 0 1920 2304" fill="none" xmlns="http://www.w3.org/2000/svg">
<path opacity="0.3" d="M204.298 145C204.463 152.883 207.078 174.23 192.815 165.154C187.221 161.594 190.662 164.126 197.034 165.037C205.643 166.267 215.756 164.403 223.984 167.146C230.085 169.18 214.647 168.075 212.266 166.56C208.5 164.164 202.679 174.154 203.595 177.106C204.863 181.191 210.433 186.411 208.517 178.746" stroke="white" stroke-width="10" stroke-linecap="round"/>
<path opacity="0.3" d="M1304.3 534C1304.46 541.883 1307.08 563.23 1292.82 554.154C1287.22 550.594 1290.66 553.126 1297.03 554.037C1305.64 555.267 1315.76 553.403 1323.98 556.146C1330.08 558.18 1314.65 557.075 1312.27 555.56C1308.5 553.164 1302.68 563.154 1303.6 566.106C1304.86 570.191 1310.43 575.411 1308.52 567.746" stroke="white" stroke-width="10" stroke-linecap="round"/>
<path opacity="0.3" d="M475.298 1471C475.463 1478.88 478.078 1500.23 463.815 1491.15C458.221 1487.59 461.662 1490.13 468.034 1491.04C476.643 1492.27 486.756 1490.4 494.984 1493.15C501.085 1495.18 485.647 1494.08 483.266 1492.56C479.5 1490.16 473.679 1500.15 474.595 1503.11C475.863 1507.19 481.433 1512.41 479.517 1504.75" stroke="white" stroke-width="10" stroke-linecap="round"/>
<path opacity="0.3" d="M1627.3 1818C1627.46 1825.88 1630.08 1847.23 1615.82 1838.15C1610.22 1834.59 1613.66 1837.13 1620.03 1838.04C1628.64 1839.27 1638.76 1837.4 1646.98 1840.15C1653.08 1842.18 1637.65 1841.08 1635.27 1839.56C1631.5 1837.16 1625.68 1847.15 1626.6 1850.11C1627.86 1854.19 1633.43 1859.41 1631.52 1851.75" stroke="white" stroke-width="10" stroke-linecap="round"/>
<path opacity="0.3" d="M510.298 844C510.463 851.883 513.078 873.23 498.815 864.154C493.221 860.594 496.662 863.126 503.034 864.037C511.643 865.267 521.756 863.403 529.984 866.146C536.085 868.18 520.647 867.075 518.266 865.56C514.5 863.164 508.679 873.154 509.595 876.106C510.863 880.191 516.433 885.411 514.517 877.746" stroke="white" stroke-width="10" stroke-linecap="round"/>
<path opacity="0.3" d="M1411.3 1214C1411.46 1221.88 1414.08 1243.23 1399.82 1234.15C1394.22 1230.59 1397.66 1233.13 1404.03 1234.04C1412.64 1235.27 1422.76 1233.4 1430.98 1236.15C1437.08 1238.18 1421.65 1237.08 1419.27 1235.56C1415.5 1233.16 1409.68 1243.15 1410.6 1246.11C1411.86 1250.19 1417.43 1255.41 1415.52 1247.75" stroke="white" stroke-width="10" stroke-linecap="round"/>
<path opacity="0.3" d="M695.298 2102C695.463 2109.88 698.078 2131.23 683.815 2122.15C678.221 2118.59 681.662 2121.13 688.034 2122.04C696.643 2123.27 706.756 2121.4 714.984 2124.15C721.085 2126.18 705.647 2125.08 703.266 2123.56C699.5 2121.16 693.679 2131.15 694.595 2134.11C695.863 2138.19 701.433 2143.41 699.517 2135.75" stroke="white" stroke-width="10" stroke-linecap="round"/>
<path opacity="0.3" d="M1055.3 1571C1055.46 1578.88 1058.08 1600.23 1043.82 1591.15C1038.22 1587.59 1041.66 1590.13 1048.03 1591.04C1056.64 1592.27 1066.76 1590.4 1074.98 1593.15C1081.08 1595.18 1065.65 1594.08 1063.27 1592.56C1059.5 1590.16 1053.68 1600.15 1054.6 1603.11C1055.86 1607.19 1061.43 1612.41 1059.52 1604.75" stroke="white" stroke-width="10" stroke-linecap="round"/>
<path opacity="0.3" d="M1560.3 1023C1560.46 1030.88 1563.08 1052.23 1548.82 1043.15C1543.22 1039.59 1546.66 1042.13 1553.03 1043.04C1561.64 1044.27 1571.76 1042.4 1579.98 1045.15C1586.08 1047.18 1570.65 1046.08 1568.27 1044.56C1564.5 1042.16 1558.68 1052.15 1559.6 1055.11C1560.86 1059.19 1566.43 1064.41 1564.52 1056.75" stroke="white" stroke-width="10" stroke-linecap="round"/>
<path opacity="0.3" d="M1037.3 1101C1037.46 1108.88 1040.08 1130.23 1025.82 1121.15C1020.22 1117.59 1023.66 1120.13 1030.03 1121.04C1038.64 1122.27 1048.76 1120.4 1056.98 1123.15C1063.08 1125.18 1047.65 1124.08 1045.27 1122.56C1041.5 1120.16 1035.68 1130.15 1036.6 1133.11C1037.86 1137.19 1043.43 1142.41 1041.52 1134.75" stroke="white" stroke-width="10" stroke-linecap="round"/>
<path opacity="0.3" d="M939.298 707C939.463 714.883 942.078 736.23 927.815 727.154C922.221 723.594 925.662 726.126 932.034 727.037C940.643 728.267 950.756 726.403 958.984 729.146C965.085 731.18 949.647 730.075 947.266 728.56C943.5 726.164 937.679 736.154 938.595 739.106C939.863 743.191 945.433 748.411 943.517 740.746" stroke="white" stroke-width="10" stroke-linecap="round"/>
<path opacity="0.3" d="M1525.3 223C1525.46 230.883 1528.08 252.23 1513.82 243.154C1508.22 239.594 1511.66 242.126 1518.03 243.037C1526.64 244.267 1536.76 242.403 1544.98 245.146C1551.08 247.18 1535.65 246.075 1533.27 244.56C1529.5 242.164 1523.68 252.154 1524.6 255.106C1525.86 259.191 1531.43 264.411 1529.52 256.746" stroke="white" stroke-width="10" stroke-linecap="round"/>
<path opacity="0.3" d="M868.298 261C868.463 268.883 871.078 290.23 856.815 281.154C851.221 277.594 854.662 280.126 861.034 281.037C869.643 282.267 879.756 280.403 887.984 283.146C894.085 285.18 878.647 284.075 876.266 282.56C872.5 280.164 866.679 290.154 867.595 293.106C868.863 297.191 874.433 302.411 872.517 294.746" stroke="white" stroke-width="10" stroke-linecap="round"/>
<path opacity="0.3" d="M493.298 473C493.463 480.883 496.078 502.23 481.815 493.154C476.221 489.594 479.662 492.126 486.034 493.037C494.643 494.267 504.756 492.403 512.984 495.146C519.085 497.18 503.647 496.075 501.266 494.56C497.5 492.164 491.679 502.154 492.595 505.106C493.863 509.191 499.433 514.411 497.517 506.746" stroke="white" stroke-width="10" stroke-linecap="round"/>
<path opacity="0.3" d="M330.298 1176C330.463 1183.88 333.078 1205.23 318.815 1196.15C313.221 1192.59 316.662 1195.13 323.034 1196.04C331.643 1197.27 341.756 1195.4 349.984 1198.15C356.085 1200.18 340.647 1199.08 338.266 1197.56C334.5 1195.16 328.679 1205.15 329.595 1208.11C330.863 1212.19 336.433 1217.41 334.517 1209.75" stroke="white" stroke-width="10" stroke-linecap="round"/>
<path opacity="0.3" d="M746.298 1295C746.463 1302.88 749.078 1324.23 734.815 1315.15C729.221 1311.59 732.662 1314.13 739.034 1315.04C747.643 1316.27 757.756 1314.4 765.984 1317.15C772.085 1319.18 756.647 1318.08 754.266 1316.56C750.5 1314.16 744.679 1324.15 745.595 1327.11C746.863 1331.19 752.433 1336.41 750.517 1328.75" stroke="white" stroke-width="10" stroke-linecap="round"/>
<path opacity="0.3" d="M728.298 1780C728.463 1787.88 731.078 1809.23 716.815 1800.15C711.221 1796.59 714.662 1799.13 721.034 1800.04C729.643 1801.27 739.756 1799.4 747.984 1802.15C754.085 1804.18 738.647 1803.08 736.266 1801.56C732.5 1799.16 726.679 1809.15 727.595 1812.11C728.863 1816.19 734.433 1821.41 732.517 1813.75" stroke="white" stroke-width="10" stroke-linecap="round"/>
<path opacity="0.3" d="M276.298 1729C276.463 1736.88 279.078 1758.23 264.815 1749.15C259.221 1745.59 262.662 1748.13 269.034 1749.04C277.643 1750.27 287.756 1748.4 295.984 1751.15C302.085 1753.18 286.647 1752.08 284.266 1750.56C280.5 1748.16 274.679 1758.15 275.595 1761.11C276.863 1765.19 282.433 1770.41 280.517 1762.75" stroke="white" stroke-width="10" stroke-linecap="round"/>
<path opacity="0.3" d="M311.298 2023C311.463 2030.88 314.078 2052.23 299.815 2043.15C294.221 2039.59 297.662 2042.13 304.034 2043.04C312.643 2044.27 322.756 2042.4 330.984 2045.15C337.085 2047.18 321.647 2046.08 319.266 2044.56C315.5 2042.16 309.679 2052.15 310.595 2055.11C311.863 2059.19 317.433 2064.41 315.517 2056.75" stroke="white" stroke-width="10" stroke-linecap="round"/>
<path opacity="0.3" d="M1131.3 1837C1131.46 1844.88 1134.08 1866.23 1119.82 1857.15C1114.22 1853.59 1117.66 1856.13 1124.03 1857.04C1132.64 1858.27 1142.76 1856.4 1150.98 1859.15C1157.08 1861.18 1141.65 1860.08 1139.27 1858.56C1135.5 1856.16 1129.68 1866.15 1130.6 1869.11C1131.86 1873.19 1137.43 1878.41 1135.52 1870.75" stroke="white" stroke-width="10" stroke-linecap="round"/>
<path opacity="0.3" d="M1148.3 2083C1148.46 2090.88 1151.08 2112.23 1136.82 2103.15C1131.22 2099.59 1134.66 2102.13 1141.03 2103.04C1149.64 2104.27 1159.76 2102.4 1167.98 2105.15C1174.08 2107.18 1158.65 2106.08 1156.27 2104.56C1152.5 2102.16 1146.68 2112.15 1147.6 2115.11C1148.86 2119.19 1154.43 2124.41 1152.52 2116.75" stroke="white" stroke-width="10" stroke-linecap="round"/>
<path opacity="0.3" d="M1542.3 1985C1542.46 1992.88 1545.08 2014.23 1530.82 2005.15C1525.22 2001.59 1528.66 2004.13 1535.03 2005.04C1543.64 2006.27 1553.76 2004.4 1561.98 2007.15C1568.08 2009.18 1552.65 2008.08 1550.27 2006.56C1546.5 2004.16 1540.68 2014.15 1541.6 2017.11C1542.86 2021.19 1548.43 2026.41 1546.52 2018.75" stroke="white" stroke-width="10" stroke-linecap="round"/>
<path opacity="0.3" d="M1710.3 2140C1710.46 2147.88 1713.08 2169.23 1698.82 2160.15C1693.22 2156.59 1696.66 2159.13 1703.03 2160.04C1711.64 2161.27 1721.76 2159.4 1729.98 2162.15C1736.08 2164.18 1720.65 2163.08 1718.27 2161.56C1714.5 2159.16 1708.68 2169.15 1709.6 2172.11C1710.86 2176.19 1716.43 2181.41 1714.52 2173.75" stroke="white" stroke-width="10" stroke-linecap="round"/>
<path opacity="0.3" d="M1479.3 1533C1479.46 1540.88 1482.08 1562.23 1467.82 1553.15C1462.22 1549.59 1465.66 1552.13 1472.03 1553.04C1480.64 1554.27 1490.76 1552.4 1498.98 1555.15C1505.08 1557.18 1489.65 1556.08 1487.27 1554.56C1483.5 1552.16 1477.68 1562.15 1478.6 1565.11C1479.86 1569.19 1485.43 1574.41 1483.52 1566.75" stroke="white" stroke-width="10" stroke-linecap="round"/>
<path opacity="0.3" d="M1645.3 1333C1645.46 1340.88 1648.08 1362.23 1633.82 1353.15C1628.22 1349.59 1631.66 1352.13 1638.03 1353.04C1646.64 1354.27 1656.76 1352.4 1664.98 1355.15C1671.08 1357.18 1655.65 1356.08 1653.27 1354.56C1649.5 1352.16 1643.68 1362.15 1644.6 1365.11C1645.86 1369.19 1651.43 1374.41 1649.52 1366.75" stroke="white" stroke-width="10" stroke-linecap="round"/>
<path opacity="0.3" d="M590.379 192.675C595.414 189.214 590.137 184.922 590.599 192.089C591.181 201.112 597.421 198.128 600.352 192.089C603.585 185.427 598.514 179.987 594.486 187.469C592.031 192.027 595.555 193.683 594.339 190.035" stroke="white" stroke-width="10" stroke-linecap="round"/>
<path opacity="0.3" d="M568 199.817C573.035 196.355 567.758 192.063 568.22 199.23C568.802 208.254 575.042 205.27 577.973 199.23C581.206 192.568 576.135 187.129 572.107 194.61C569.652 199.169 573.176 200.824 571.96 197.177" stroke="white" stroke-width="10" stroke-linecap="round"/>
<path opacity="0.3" d="M286 467.817C291.035 464.355 285.758 460.063 286.22 467.23C286.802 476.254 293.042 473.27 295.973 467.23C299.206 460.568 294.135 455.129 290.107 462.61C287.652 467.169 291.176 468.824 289.96 465.177" stroke="white" stroke-width="10" stroke-linecap="round"/>
<path opacity="0.3" d="M262 890.817C267.035 887.355 261.758 883.063 262.22 890.23C262.802 899.254 269.042 896.27 271.973 890.23C275.206 883.568 270.135 878.129 266.107 885.61C263.652 890.169 267.176 891.824 265.96 888.177" stroke="white" stroke-width="10" stroke-linecap="round"/>
<path opacity="0.3" d="M661 680.817C666.035 677.355 660.758 673.063 661.22 680.23C661.802 689.254 668.042 686.27 670.973 680.23C674.206 673.568 669.135 668.129 665.107 675.61C662.652 680.169 666.176 681.824 664.96 678.177" stroke="white" stroke-width="10" stroke-linecap="round"/>
<path opacity="0.3" d="M767 1128.82C772.035 1125.36 766.758 1121.06 767.22 1128.23C767.802 1137.25 774.042 1134.27 776.973 1128.23C780.206 1121.57 775.135 1116.13 771.107 1123.61C768.652 1128.17 772.176 1129.82 770.96 1126.18" stroke="white" stroke-width="10" stroke-linecap="round"/>
<path opacity="0.3" d="M1023 415.817C1028.03 412.355 1022.76 408.063 1023.22 415.23C1023.8 424.254 1030.04 421.27 1032.97 415.23C1036.21 408.568 1031.14 403.129 1027.11 410.61C1024.65 415.169 1028.18 416.824 1026.96 413.177" stroke="white" stroke-width="10" stroke-linecap="round"/>
<path opacity="0.3" d="M826 512.817C831.035 509.355 825.758 505.063 826.22 512.23C826.802 521.254 833.042 518.27 835.973 512.23C839.206 505.568 834.135 500.129 830.107 507.61C827.652 512.169 831.176 513.824 829.96 510.177" stroke="white" stroke-width="10" stroke-linecap="round"/>
<path opacity="0.3" d="M1175 192.817C1180.03 189.355 1174.76 185.063 1175.22 192.23C1175.8 201.254 1182.04 198.27 1184.97 192.23C1188.21 185.568 1183.14 180.129 1179.11 187.61C1176.65 192.169 1180.18 193.824 1178.96 190.177" stroke="white" stroke-width="10" stroke-linecap="round"/>
<path opacity="0.3" d="M1409 377.817C1414.03 374.355 1408.76 370.063 1409.22 377.23C1409.8 386.254 1416.04 383.27 1418.97 377.23C1422.21 370.568 1417.14 365.129 1413.11 372.61C1410.65 377.169 1414.18 378.824 1412.96 375.177" stroke="white" stroke-width="10" stroke-linecap="round"/>
<path opacity="0.3" d="M1685 701.817C1690.03 698.355 1684.76 694.063 1685.22 701.23C1685.8 710.254 1692.04 707.27 1694.97 701.23C1698.21 694.568 1693.14 689.129 1689.11 696.61C1686.65 701.169 1690.18 702.824 1688.96 699.177" stroke="white" stroke-width="10" stroke-linecap="round"/>
<path opacity="0.3" d="M1727 429.817C1732.03 426.355 1726.76 422.063 1727.22 429.23C1727.8 438.254 1734.04 435.27 1736.97 429.23C1740.21 422.568 1735.14 417.129 1731.11 424.61C1728.65 429.169 1732.18 430.824 1730.96 427.177" stroke="white" stroke-width="10" stroke-linecap="round"/>
<path opacity="0.3" d="M1325 876.817C1330.03 873.355 1324.76 869.063 1325.22 876.23C1325.8 885.254 1332.04 882.27 1334.97 876.23C1338.21 869.568 1333.14 864.129 1329.11 871.61C1326.65 876.169 1330.18 877.824 1328.96 874.177" stroke="white" stroke-width="10" stroke-linecap="round"/>
<path opacity="0.3" d="M960 949.817C965.035 946.355 959.758 942.063 960.22 949.23C960.802 958.254 967.042 955.27 969.973 949.23C973.206 942.568 968.135 937.129 964.107 944.61C961.652 949.169 965.176 950.824 963.96 947.177" stroke="white" stroke-width="10" stroke-linecap="round"/>
<path opacity="0.3" d="M1228 1334.82C1233.03 1331.36 1227.76 1327.06 1228.22 1334.23C1228.8 1343.25 1235.04 1340.27 1237.97 1334.23C1241.21 1327.57 1236.14 1322.13 1232.11 1329.61C1229.65 1334.17 1233.18 1335.82 1231.96 1332.18" stroke="white" stroke-width="10" stroke-linecap="round"/>
<path opacity="0.3" d="M692 883.817C697.035 880.355 691.758 876.063 692.22 883.23C692.802 892.254 699.042 889.27 701.973 883.23C705.206 876.568 700.135 871.129 696.107 878.61C693.652 883.169 697.176 884.824 695.96 881.177" stroke="white" stroke-width="10" stroke-linecap="round"/>
<path opacity="0.3" d="M1302 1651.82C1307.03 1648.36 1301.76 1644.06 1302.22 1651.23C1302.8 1660.25 1309.04 1657.27 1311.97 1651.23C1315.21 1644.57 1310.14 1639.13 1306.11 1646.61C1303.65 1651.17 1307.18 1652.82 1305.96 1649.18" stroke="white" stroke-width="10" stroke-linecap="round"/>
<path opacity="0.3" d="M726 1610.82C731.035 1607.36 725.758 1603.06 726.22 1610.23C726.802 1619.25 733.042 1616.27 735.973 1610.23C739.206 1603.57 734.135 1598.13 730.107 1605.61C727.652 1610.17 731.176 1611.82 729.96 1608.18" stroke="white" stroke-width="10" stroke-linecap="round"/>
<path opacity="0.3" d="M914 2024.82C919.035 2021.36 913.758 2017.06 914.22 2024.23C914.802 2033.25 921.042 2030.27 923.973 2024.23C927.206 2017.57 922.135 2012.13 918.107 2019.61C915.652 2024.17 919.176 2025.82 917.96 2022.18" stroke="white" stroke-width="10" stroke-linecap="round"/>
<path opacity="0.3" d="M545 1911.82C550.035 1908.36 544.758 1904.06 545.22 1911.23C545.802 1920.25 552.042 1917.27 554.973 1911.23C558.206 1904.57 553.135 1899.13 549.107 1906.61C546.652 1911.17 550.176 1912.82 548.96 1909.18" stroke="white" stroke-width="10" stroke-linecap="round"/>
<path opacity="0.3" d="M503 1774.82C508.035 1771.36 502.758 1767.06 503.22 1774.23C503.802 1783.25 510.042 1780.27 512.973 1774.23C516.206 1767.57 511.135 1762.13 507.107 1769.61C504.652 1774.17 508.176 1775.82 506.96 1772.18" stroke="white" stroke-width="10" stroke-linecap="round"/>
<path opacity="0.3" d="M195 1498.82C200.035 1495.36 194.758 1491.06 195.22 1498.23C195.802 1507.25 202.042 1504.27 204.973 1498.23C208.206 1491.57 203.135 1486.13 199.107 1493.61C196.652 1498.17 200.176 1499.82 198.96 1496.18" stroke="white" stroke-width="10" stroke-linecap="round"/>
<path opacity="0.3" d="M139 1918.82C144.035 1915.36 138.758 1911.06 139.22 1918.23C139.802 1927.25 146.042 1924.27 148.973 1918.23C152.206 1911.57 147.135 1906.13 143.107 1913.61C140.652 1918.17 144.176 1919.82 142.96 1916.18" stroke="white" stroke-width="10" stroke-linecap="round"/>
<path opacity="0.3" d="M1330 1925.82C1335.03 1922.36 1329.76 1918.06 1330.22 1925.23C1330.8 1934.25 1337.04 1931.27 1339.97 1925.23C1343.21 1918.57 1338.14 1913.13 1334.11 1920.61C1331.65 1925.17 1335.18 1926.82 1333.96 1923.18" stroke="white" stroke-width="10" stroke-linecap="round"/>
<path opacity="0.3" d="M1696 1624.82C1701.03 1621.36 1695.76 1617.06 1696.22 1624.23C1696.8 1633.25 1703.04 1630.27 1705.97 1624.23C1709.21 1617.57 1704.14 1612.13 1700.11 1619.61C1697.65 1624.17 1701.18 1625.82 1699.96 1622.18" stroke="white" stroke-width="10" stroke-linecap="round"/>
</svg>
