<svg width="121" height="119" viewBox="0 0 121 119" fill="none" xmlns="http://www.w3.org/2000/svg">
<path d="M3.19045 48.0526C2.43678 52.5486 4.08941 57.3758 5.19107 61.6402C6.02628 62.8853 7.2784 64.009 8.2195 65.0286C9.19463 66.0849 9.01438 67.9715 9.77779 69.184C10.2507 69.9351 11.1433 70.4548 11.1 71.4506C10.9127 75.7577 9.18925 79.7899 9.21114 84.2003C9.25154 92.3405 11.3572 103.648 18.7026 108.614C22.5475 111.213 28.613 113.085 32.9633 114.044C43.1455 116.29 54.0909 117.034 64.3181 114.752C72.091 113.019 69.0637 112.827 77.1623 111.966C80.5492 111.606 86.1425 111.907 89.5342 110.88C95.7956 108.984 100.219 103.18 105.4 99.4999C111.635 95.0718 117.203 90.2218 118.197 82.1462C118.863 76.7339 118.196 70.8486 118.056 65.4063C117.9 59.3696 115.871 53.8763 115.293 47.9345C114.941 44.3107 115.504 41.1515 114.727 37.5223C113.711 32.7836 113.863 28.8416 114.491 24.0643C115.381 17.2873 114.14 13.4077 107.525 10.7243C102.251 8.58451 97.0821 7.64083 91.4702 6.82858C85.1651 5.91601 78.8227 3.13171 72.4638 3.00368C63.1545 2.81624 55.9828 9.86168 46.7991 8.69382C39.7381 7.79588 32.1272 5.80882 24.983 6.47443C21.1029 6.83593 18.3005 9.65567 16.2235 12.7312C14.2353 15.6752 15.0153 18.8305 14.9721 22.199C14.9166 26.5311 14.4231 29.8981 11.6194 33.2252C8.04581 37.4658 4.13521 42.4166 3.19045 48.0526Z" fill="#444F84"/>
<path d="M5.1932 61.6484C4.09155 57.382 2.4363 52.5515 3.19045 48.0526C4.13521 42.4166 8.04581 37.4658 11.6194 33.2252C14.4231 29.8981 14.9166 26.5311 14.9721 22.199C15.0153 18.8305 14.2353 15.6752 16.2235 12.7312C18.3005 9.65567 21.1029 6.83593 24.983 6.47443C32.1272 5.80882 39.7381 7.79588 46.7991 8.69382C55.9828 9.86168 63.1545 2.81624 72.4638 3.00368C78.8227 3.13171 85.1651 5.91601 91.4702 6.82858C97.0821 7.64083 102.251 8.58451 107.525 10.7243C114.14 13.4077 115.381 17.2873 114.491 24.0643C113.863 28.8416 113.711 32.7836 114.727 37.5223C115.504 41.1515 114.941 44.3107 115.293 47.9345C115.871 53.8763 117.9 59.3696 118.056 65.4063C118.196 70.8486 118.863 76.7339 118.197 82.1462C117.203 90.2218 111.635 95.0718 105.4 99.4999C100.219 103.18 95.7956 108.984 89.5342 110.88C86.1425 111.907 80.5492 111.606 77.1623 111.966C69.0637 112.827 72.091 113.019 64.3181 114.752C54.0909 117.034 43.1455 116.29 32.9633 114.044C28.613 113.085 22.5475 111.213 18.7026 108.614C11.3572 103.648 9.25154 92.3405 9.21114 84.2003C9.18925 79.7899 10.9127 75.7577 11.1 71.4506C11.1433 70.4548 10.2507 69.9351 9.77779 69.184C9.01438 67.9715 9.19463 66.0849 8.2195 65.0286C6.94238 63.645 5.0925 62.0696 4.48903 60.2592" stroke="black" stroke-width="5" stroke-linecap="round"/>
<path d="M91.8761 32.1235C91.6503 31.4581 91.3808 31.283 90.96 31.1167C90.0395 30.7752 88.4802 31.2918 88.4802 31.2918C88.4802 31.2918 33.2807 51.1476 30.1272 53.345C29.4482 53.8178 29.2207 54.0979 29.1079 54.4219C28.5627 55.9802 30.2611 56.6718 30.2611 56.6718L44.4886 61.3119C44.4886 61.3119 45.0189 61.3906 45.2079 61.2681C48.4445 59.2195 77.7719 40.6944 79.4633 40.0728C79.7302 39.994 79.9279 40.0816 79.8754 40.2654C79.1982 42.6467 53.726 65.2953 53.726 65.2953C53.726 65.2953 53.6289 65.4178 53.5677 65.5579L53.5344 65.5404L52.207 79.6618C52.207 79.6618 51.6505 83.9867 55.9739 79.6618C59.0242 76.6064 61.9755 74.05 63.4525 72.8156C68.3447 76.1949 73.6095 79.9332 75.8819 81.8855C77.0229 82.8661 77.9776 83.0236 78.7633 82.9974C80.9202 82.9186 81.5222 80.5461 81.5222 80.5461C81.5222 80.5461 91.5812 40.0378 91.9172 34.6098C91.9505 34.0758 91.996 33.7431 91.9995 33.3754C92.0056 32.8676 91.9583 32.3599 91.8761 32.1235Z" fill="#F6E120"/>
</svg>
