<svg width="121" height="119" viewBox="0 0 121 119" fill="none" xmlns="http://www.w3.org/2000/svg">
<path d="M3.17873 47.9041C2.42506 52.4002 4.0777 57.2274 5.17936 61.4918C6.01456 62.7369 7.26668 63.8606 8.20778 64.8801C9.18291 65.9365 9.00266 67.8231 9.76607 69.0356C10.239 69.7866 11.1316 70.3064 11.0883 71.3022C10.901 75.6093 9.17753 79.6415 9.19942 84.0519C9.23982 92.1921 11.3455 103.5 18.6909 108.465C22.5358 111.064 28.6013 112.936 32.9516 113.896C43.1338 116.141 54.0792 116.885 64.3064 114.604C72.0793 112.87 69.052 112.679 77.1505 111.818C80.5375 111.458 86.1308 111.759 89.5225 110.732C95.7839 108.836 100.207 103.032 105.389 99.3515C111.623 94.9234 117.192 90.0734 118.186 81.9978C118.852 76.5855 118.184 70.7002 118.044 65.2579C117.888 59.2211 115.859 53.7279 115.282 47.7861C114.929 44.1623 115.493 41.0031 114.715 37.3738C113.699 32.6352 113.851 28.6932 114.479 23.9158C115.369 17.1388 114.129 13.2593 107.514 10.5759C102.239 8.43608 97.0704 7.49239 91.4585 6.68015C85.1534 5.76757 78.8109 2.98327 72.452 2.85524C63.1427 2.6678 55.9711 9.71324 46.7874 8.54538C39.7264 7.64745 32.1155 5.66038 24.9713 6.32599C21.0912 6.68749 18.2887 9.50723 16.2117 12.5828C14.2236 15.5268 15.0036 18.682 14.9604 22.0506C14.9049 26.3827 14.4114 29.7497 11.6077 33.0767C8.03409 37.3174 4.12349 42.2682 3.17873 47.9041Z" fill="#444F84"/>
<path d="M5.18149 61.5C4.07983 57.2336 2.42458 52.4031 3.17873 47.9041C4.12349 42.2682 8.03409 37.3174 11.6077 33.0767C14.4114 29.7497 14.9048 26.3827 14.9604 22.0506C15.0036 18.682 14.2236 15.5268 16.2117 12.5828C18.2887 9.50723 21.0912 6.68749 24.9713 6.32599C32.1155 5.66038 39.7264 7.64745 46.7874 8.54538C55.9711 9.71324 63.1427 2.6678 72.452 2.85524C78.8109 2.98327 85.1534 5.76757 91.4585 6.68015C97.0704 7.49239 102.239 8.43608 107.514 10.5759C114.129 13.2593 115.369 17.1388 114.479 23.9158C113.851 28.6932 113.699 32.6352 114.715 37.3738C115.493 41.0031 114.929 44.1623 115.282 47.7861C115.859 53.7279 117.888 59.2211 118.044 65.2579C118.184 70.7002 118.852 76.5855 118.186 81.9978C117.192 90.0734 111.623 94.9234 105.389 99.3515C100.207 103.032 95.7839 108.836 89.5225 110.732C86.1308 111.759 80.5375 111.458 77.1505 111.818C69.052 112.679 72.0793 112.87 64.3064 114.604C54.0792 116.885 43.1338 116.141 32.9516 113.896C28.6013 112.936 22.5358 111.064 18.6909 108.465C11.3455 103.5 9.23982 92.1921 9.19942 84.0519C9.17753 79.6415 10.901 75.6093 11.0883 71.3022C11.1316 70.3064 10.239 69.7866 9.76607 69.0356C9.00266 67.8231 9.18291 65.9365 8.20778 64.8801C6.93066 63.4966 5.08078 61.9212 4.47731 60.1108" stroke="black" stroke-width="5" stroke-linecap="round"/>
<path d="M77.6893 83.4434L61.9936 60.639L59.7584 57.3927L41.5454 30.9308H49.3798L64.1089 52.3312L66.3439 55.5774L85.5237 83.4434H77.6893ZM88.7625 81.2159L68.9937 52.4956L66.7587 49.2474L52.6172 28.7028L51.4452 27.0002H34.0684L38.3063 33.1584L57.1088 60.478L59.3439 63.7228L74.4515 85.6734L75.6237 87.374H93.0005L88.7625 81.2159Z" fill="#F6E120"/>
<path d="M59.758 57.3927L61.9932 60.639L59.3435 63.7228L39.0133 87.374H34L57.1084 60.478L59.758 57.3927Z" fill="#F6E120"/>
<path d="M90.909 26.9999L68.9941 52.4953L66.3444 55.5771L64.1094 52.3309L66.7591 49.2471L81.604 31.9686L85.8957 26.9999H90.909Z" fill="#F6E120"/>
</svg>
