<svg width="121" height="119" viewBox="0 0 121 119" fill="none" xmlns="http://www.w3.org/2000/svg">
<path d="M3.19045 48.0526C2.43678 52.5486 4.08941 57.3758 5.19107 61.6402C6.02628 62.8853 7.2784 64.009 8.2195 65.0286C9.19463 66.0849 9.01438 67.9715 9.77779 69.184C10.2507 69.9351 11.1433 70.4548 11.1 71.4506C10.9127 75.7577 9.18925 79.7899 9.21114 84.2003C9.25154 92.3405 11.3572 103.648 18.7026 108.614C22.5475 111.213 28.613 113.085 32.9633 114.044C43.1455 116.29 54.0909 117.034 64.3181 114.752C72.091 113.019 69.0637 112.827 77.1623 111.966C80.5492 111.606 86.1425 111.907 89.5342 110.88C95.7956 108.984 100.219 103.18 105.4 99.4999C111.635 95.0718 117.203 90.2218 118.197 82.1462C118.863 76.7339 118.196 70.8486 118.056 65.4063C117.9 59.3696 115.871 53.8763 115.293 47.9345C114.941 44.3107 115.504 41.1515 114.727 37.5223C113.711 32.7836 113.863 28.8416 114.491 24.0643C115.381 17.2873 114.14 13.4077 107.525 10.7243C102.251 8.58451 97.0821 7.64083 91.4702 6.82858C85.1651 5.91601 78.8227 3.13171 72.4638 3.00368C63.1545 2.81624 55.9828 9.86168 46.7991 8.69382C39.7381 7.79588 32.1272 5.80882 24.983 6.47443C21.1029 6.83593 18.3005 9.65567 16.2235 12.7312C14.2353 15.6752 15.0153 18.8305 14.9721 22.199C14.9166 26.5311 14.4231 29.8981 11.6194 33.2252C8.04581 37.4658 4.13521 42.4166 3.19045 48.0526Z" fill="#444F84"/>
<path d="M5.1932 61.6484C4.09155 57.382 2.4363 52.5515 3.19045 48.0526C4.13521 42.4166 8.04581 37.4658 11.6194 33.2252C14.4231 29.8981 14.9166 26.5311 14.9721 22.199C15.0153 18.8305 14.2353 15.6752 16.2235 12.7312C18.3005 9.65567 21.1029 6.83593 24.983 6.47443C32.1272 5.80882 39.7381 7.79588 46.7991 8.69382C55.9828 9.86168 63.1545 2.81624 72.4638 3.00368C78.8227 3.13171 85.1651 5.91601 91.4702 6.82858C97.0821 7.64083 102.251 8.58451 107.525 10.7243C114.14 13.4077 115.381 17.2873 114.491 24.0643C113.863 28.8416 113.711 32.7836 114.727 37.5223C115.504 41.1515 114.941 44.3107 115.293 47.9345C115.871 53.8763 117.9 59.3696 118.056 65.4063C118.196 70.8486 118.863 76.7339 118.197 82.1462C117.203 90.2218 111.635 95.0718 105.4 99.4999C100.219 103.18 95.7956 108.984 89.5342 110.88C86.1425 111.907 80.5492 111.606 77.1623 111.966C69.0637 112.827 72.091 113.019 64.3181 114.752C54.0909 117.034 43.1455 116.29 32.9633 114.044C28.613 113.085 22.5475 111.213 18.7026 108.614C11.3572 103.648 9.25154 92.3405 9.21114 84.2003C9.18925 79.7899 10.9127 75.7577 11.1 71.4506C11.1433 70.4548 10.2507 69.9351 9.77779 69.184C9.01438 67.9715 9.19463 66.0849 8.2195 65.0286C6.94238 63.645 5.0925 62.0696 4.48903 60.2592" stroke="black" stroke-width="5" stroke-linecap="round"/>
<path d="M32.5566 58.4597L41.4795 54.556V44.5177L51.5178 50.0945L60.4407 46.1907L41.4795 35.0371L32.5566 39.4986V58.4597Z" fill="#F6E120"/>
<path d="M89.9989 39.4995L82.1914 35.5957L72.1531 41.1725L78.8453 44.5186L32 66.2682V77.4218L39.2499 80.7679L49.8458 76.3065L43.1536 72.4027L89.9989 51.2108V39.4995Z" fill="#F6E120"/>
<path d="M90.0013 76.3077V58.4619L81.636 61.808V71.8463L71.0401 66.8271L62.1172 71.8463L81.636 81.3269L90.0013 76.3077Z" fill="#F6E120"/>
<path d="M61.5564 81.884L56.5372 79.6533L47.0566 84.1148L61.5564 91.9223L76.0561 84.1148L67.6909 79.6533L61.5564 81.884Z" fill="#F6E120"/>
<path d="M61.5564 25L47.0566 32.2499L55.9795 37.8267L61.5564 35.0383L66.0178 37.8267L76.0561 33.3652L61.5564 25Z" fill="#F6E120"/>
</svg>
